<svg width="116" height="117" viewBox="0 0 116 117" fill="none" xmlns="http://www.w3.org/2000/svg">
<path d="M52.0577 110.569L52.054 110.575C52.0545 110.573 52.0548 110.571 52.0553 110.569C52.0561 110.569 52.0569 110.569 52.0577 110.569Z" fill="#394E6D"/>
<path fill-rule="evenodd" clip-rule="evenodd" d="M19.1387 87.8418C19.5217 88.2961 19.9134 88.744 20.3144 89.1848C22.6081 91.7054 25.2158 93.554 28.3996 94.6606C29.2005 94.9395 29.9335 95.3595 30.6042 95.9083C27.0601 96.5305 24.2206 94.7588 21.67 92.4384C22.2372 93.5486 23.1878 94.48 24.1616 95.1468C26.9798 97.0739 30.3206 97.2831 33.606 96.7182C35.3772 96.4143 37.3231 96.1568 39.0425 96.6913C41.215 97.3689 43.1716 98.5399 45.0284 99.7519C46.0111 100.394 46.4749 101.89 45.774 102.768C45.3744 103.268 44.6306 102.644 44.3863 102.215C43.4249 100.524 42.1656 98.8598 40.2464 98.2163C38.2202 97.537 35.9586 97.8159 33.968 98.5113C31.2712 99.4516 28.6867 99.3175 25.8846 98.5077C28.2551 100.16 31.2837 100.496 34.0804 99.8056C36.2458 99.271 38.3326 98.9653 40.4783 99.6536C41.8856 100.106 42.9094 100.925 43.4731 102.317L44.5949 105.09C45.1354 106.427 46.2055 107.344 47.5468 107.766C48.9577 108.21 50.1599 107.534 50.9732 106.357C51.7473 106.22 52.7247 107.208 52.591 108.043C52.4574 108.877 52.3024 109.51 52.0553 110.569C49.5895 110.317 47.3392 109.77 45.0783 108.934C42.9558 108.149 43.0611 106.316 41.7412 104.275L42.2316 103.839C41.2542 101.583 39.7827 99.8252 36.8968 100.544C37.5211 101.255 40.2536 104.06 40.4266 104.364C41.165 105.66 41.7733 106.803 42.6972 108.143C39.3475 107.36 36.4152 105.977 33.4365 104.509C29.3146 102.478 25.7188 99.9396 22.3406 96.8434C20.1093 94.7984 18.0627 92.6266 16.1986 90.3137C17.2353 89.5315 18.2152 88.7066 19.1387 87.8418ZM36.3991 100.758C35.6358 100.773 34.9829 100.923 34.5442 101.57C35.7998 102.396 36.8308 102.961 38.2167 103.383C37.6335 102.29 37.1001 101.599 36.3991 100.758Z" fill="#394E6D"/>
<path d="M46.9672 102.727C48.8507 101.161 51.8561 102.913 52.978 105.051C53.4774 106.004 53.6557 107.275 52.8263 108.113C52.9137 105.97 51.5118 104.214 49.3412 103.976H49.3394C48.7865 103.916 48.1016 104.196 47.8608 104.491C47.1099 105.406 47.7199 106.159 47.4095 106.788C46.227 106.275 45.7222 105.21 45.6812 104.016C46.0646 103.596 46.548 103.075 46.9672 102.727Z" fill="#394E6D"/>
<path d="M95.5155 84.9909C95.7255 85.0694 95.938 85.1445 96.1529 85.2161C95.9644 85.4874 95.8099 85.7071 95.7031 85.8596C95.1163 86.6945 94.5117 87.6116 94.3636 88.6181C94.1121 90.336 93.8624 91.9271 93.4664 93.5986C93.1204 95.061 91.722 96.1031 90.3308 96.1353L90.2791 95.6741C90.2666 95.5597 89.8225 95.6151 89.6994 95.6991C86.7939 97.6996 84.7926 96.1568 80.6564 98.1537C79.1368 98.8867 77.8775 99.9897 77.0891 101.493L75.054 105.376C74.6081 106.229 73.8679 107.169 72.9885 107.566C71.9344 108.041 70.6217 107.659 69.7602 107.014C69.2269 106.613 68.9112 105.946 68.9986 105.347C69.0788 104.795 69.5515 104.269 70.0884 103.953C70.8839 103.483 71.9273 103.486 72.5017 104.223C72.6354 104.396 72.7335 104.856 72.7228 105.054C72.7103 105.287 72.2626 105.717 71.9701 105.71L71.9736 105.707C71.756 105.701 71.4867 105.144 71.3815 104.924C71.0373 104.781 70.5432 105.276 70.5361 105.669C70.5254 106.175 70.9321 106.676 71.5581 106.652C73.4701 106.581 74.5742 103.519 75.3447 101.892C76.8341 98.7454 79.5684 96.8594 82.9662 96.307C83.8616 96.1622 84.9281 95.8601 85.4971 95.1378C85.9965 94.5014 86.0661 93.5432 86.1375 92.7424C86.3033 90.842 87.9211 89.4243 89.8296 89.9374C90.4771 90.1108 91.1959 90.9671 91.2993 91.566C91.3296 91.7394 91.0568 92.1899 90.9051 92.2489C90.7232 92.3204 90.37 92.2489 90.2149 92.1202C90.0597 91.9915 90.1685 91.5106 90.1435 91.221C90.0936 90.6275 88.7951 90.6114 88.4669 91.1101C87.9978 91.8252 87.9746 92.6422 88.3706 93.4198C88.6345 93.9383 89.2446 94.6444 90.0454 94.6891C90.9479 94.7374 91.7987 94.0634 92.1697 93.2536C93.7107 89.8909 92.4908 88.9988 94.8309 85.9168C95.064 85.6099 95.292 85.3012 95.5155 84.9909Z" fill="#394E6D"/>
<path d="M48.8364 105.406C49.0665 105.194 49.7353 105.163 49.944 105.392C50.3667 105.855 50.2775 106.613 49.4803 106.94C49.2127 107.049 48.6152 106.724 48.56 106.45C48.4922 106.111 48.6313 105.596 48.8364 105.406Z" fill="#394E6D"/>
<path d="M21.1063 85.8464C21.9533 86.8364 22.8485 87.8088 23.7908 88.7664C26.6375 91.6589 29.5929 94.0597 33.1727 96.0709C31.7458 96.2282 30.8254 95.3218 29.8337 94.6711C26.5822 92.5384 23.8781 89.8998 21.2829 86.984C21.0813 86.7576 20.8822 86.5298 20.6855 86.3007C20.8273 86.1503 20.9675 85.9989 21.1063 85.8464Z" fill="#394E6D"/>
<path d="M12.3077 54.6464C12.3452 56.3608 12.2756 58.1271 11.5532 59.7217C10.3742 62.321 8.44794 63.6064 8.79751 66.4863C9.22915 70.0367 10.3243 73.2528 11.8725 76.4725C13.1635 79.159 14.6388 81.7324 16.3219 84.1586C15.4769 85.1241 14.5771 86.0252 13.6268 86.8648C12.3457 85.004 11.1689 83.058 10.096 81.0203C7.41875 75.9379 5.52457 70.6016 4.87176 64.8667C4.74334 63.7387 5.10006 62.8466 5.90804 62.1243C6.63931 61.4718 7.05134 60.4868 6.61257 59.5376C6.49664 59.2855 6.10066 58.9011 5.85273 58.8976C5.07151 58.8868 5.207 59.9702 4.60771 60.2508C4.44538 60.3277 4.02091 60.0059 3.95492 59.8146C3.72485 59.1407 3.94606 58.2004 4.62383 57.7767C5.8581 57.0044 7.8004 57.3137 8.58164 58.6241C9.27547 59.7879 8.83315 61.277 8.11791 62.3693C6.81945 64.3554 6.41993 67.5482 7.2903 67.5697C7.78257 67.5822 7.01386 65.6712 8.32658 63.3615C9.56976 61.1734 10.9379 59.1675 8.40156 57.092C9.93011 56.4395 11.061 55.7315 12.3077 54.6464Z" fill="#394E6D"/>
<path d="M104.677 29.5789C107.525 34.4683 109.536 39.8435 110.559 45.5202C110.802 46.8663 110.391 47.896 109.651 48.8971C108.433 50.549 109.027 52.0846 109.769 52.1454C110.379 52.1954 110.381 51.248 110.828 50.903C111 50.7707 111.597 51.0228 111.708 51.2212C112.022 51.779 111.866 52.6031 111.444 53.1126C110.445 54.3175 107.513 53.8276 106.942 52.0078C106.549 50.7582 106.879 49.4138 107.593 48.3161C108.59 46.7787 109.032 44.7086 108.128 43.0711C108.082 42.987 107.78 43.3356 107.812 43.4893C108.121 44.9338 107.605 47.1309 106.671 48.5718C105.691 50.0806 105.59 51.9541 106.763 53.3074C107.518 54.178 108.859 54.591 110.008 54.4551C111.156 54.3193 111.808 53.4719 112.717 52.8301C112.617 54.0708 111.791 55.5761 110.488 55.8442C109.665 56.014 108.164 55.4866 106.419 57.8088C106.246 56.1928 106.51 55.6457 106.535 54.1691C106.535 54.0637 106.07 54.2246 106.004 54.3694C105.304 55.9354 105.451 58.5061 106.507 60.1203C107.017 60.8998 107.284 61.7346 108.305 61.8794C107.639 60.5279 106.328 59.5608 107.282 57.9376C107.794 57.067 108.749 56.6451 109.869 56.7488C110.671 56.8239 111.435 57.2618 111.845 57.7928C112.371 58.4757 112.305 59.6609 111.888 60.1811C111.743 60.3599 111.174 60.4636 110.987 60.4118C110.452 60.2598 110.962 58.9548 110.101 58.7975C109.817 58.7457 109.225 58.9995 109.166 59.2926C108.337 63.2971 110.803 62.9557 110.418 65.7659C110.099 68.0881 109.617 70.2226 108.918 72.4751C107.811 76.0398 106.397 79.4557 104.701 82.6785C103.988 82.3898 103.191 82.0485 102.355 81.6586C102.655 81.0073 102.929 80.3416 103.187 79.6688C105.073 74.7509 102.178 72.384 102.898 68.7836C103.319 66.6812 104.769 64.8864 106.656 63.9746C107.145 64.0408 107.741 64.8864 107.636 65.2922L105.709 66.4416C102.592 68.3008 104.438 73.9518 105.278 73.8642C105.419 73.8499 105.658 73.5603 105.695 73.4101L106.517 69.967C105.508 70.1833 105.688 71.3721 104.582 71.4973C105.287 70.2244 105.918 69.0964 106.38 67.845C106.73 66.9011 107.439 66.5525 108.249 66.0573C108.718 65.6032 108.199 64.3751 107.764 63.896L105.531 61.4433C104.75 60.5834 104.15 59.4321 104.172 58.2522C104.195 56.8864 104.846 55.896 105.224 54.4534C104.691 54.9199 104.293 55.3865 103.82 55.9318C103.268 53.6543 103.835 51.425 104.973 49.4818L106.291 47.2292C106.856 46.2621 106.997 45.0858 106.765 43.956C105.919 39.8494 104.272 35.7978 102.103 32.0629C103.007 31.1305 103.865 30.3072 104.677 29.5789Z" fill="#394E6D"/>
<path d="M10.9272 62.5712C11.7051 69.9755 14.1561 76.2742 18.0838 81.9387C17.9583 82.1133 17.8313 82.2862 17.7026 82.4573C16.2331 80.3511 14.9391 78.1288 13.8149 75.7626C11.96 71.8601 10.8862 67.7966 10.2727 63.5348C10.212 63.1093 10.5455 62.6606 10.9272 62.5712Z" fill="#394E6D"/>
<path d="M103.407 61.3986C104.331 60.5137 105.679 62.573 106.136 63.3507C98.1307 69.4897 102.898 73.7837 102.381 78.4353C102.258 79.5316 102.007 80.4688 101.681 81.3369C101.372 81.1863 101.062 81.0306 100.752 80.8697C100.944 80.2301 101.085 79.5734 101.154 78.8912C101.364 76.7978 99.8822 74.0483 100.082 71.2309C100.234 69.0946 100.913 67.3283 102.326 65.7248C104.145 63.6582 103.48 63.9085 103.407 61.3986Z" fill="#394E6D"/>
<path d="M100.141 76.7746C100.511 77.3453 100.066 78.6402 99.3291 80.089C99.1344 79.9761 98.9412 79.8613 98.7499 79.7446C99.2493 78.7807 99.7125 77.7925 100.141 76.7746Z" fill="#394E6D"/>
<path d="M51.4441 4.07244C50.9143 5.41142 50.9804 6.47513 51.3068 7.79087C50.941 8.32185 46.4803 10.56 46.3323 8.8778L47.8394 8.40222L48.1587 8.3093C48.2407 8.28605 48.2888 8.12158 48.2282 8.06258C47.4773 7.34754 43.7156 9.19423 42.3922 11.3269L40.1234 14.9792C39.3172 16.2789 38.2648 17.4766 36.9467 18.2346C35.0757 19.3108 32.9996 19.3447 30.9556 19.7809C29.7017 20.0491 29.4145 21.7796 29.4323 22.8308C29.4698 24.9367 28.1463 26.7083 26.1094 26.8799C25.0214 26.9729 24.3134 26.3561 24.217 25.1227L21.5683 28.1582C21.9999 26.3937 23.2021 25.2281 24.5434 24.0625C24.9287 24.1519 24.6326 24.7043 24.6255 24.9922C24.6094 25.7126 25.7634 25.9289 26.2718 25.8091C27.0209 25.6321 27.4596 24.951 27.4596 24.0839C27.4614 22.4911 25.8008 21.2165 24.1795 21.5651C23.3983 21.7331 22.6635 22.4661 22.3085 23.1633C20.7068 26.3114 21.5754 27.9579 19.8328 30.7038L18.2294 33.2323L18.2018 33.235L17.9142 33.6856C17.8497 33.7866 17.782 33.9034 17.7215 34.0331L17.1235 34.9764C15.5165 37.5096 14.4088 40.1572 13.328 42.9335C13.1211 42.2077 13.2459 41.5015 13.5099 40.8365C14.8762 37.4149 16.6027 34.2471 18.7021 31.233C19.3709 30.2748 19.6955 29.2254 19.8561 28.0813C20.104 26.3151 20.4428 24.6435 20.9315 22.9417C21.8144 19.8686 24.4756 18.9605 27.4043 18.8282C29.575 18.7316 31.6797 18.6726 33.8147 18.29C37.1108 17.7001 38.4665 14.5877 39.8612 12.0367C40.8137 10.2954 42.3351 9.1477 43.9101 7.81408C42.1586 8.17877 40.5801 9.72694 39.3476 11.3412L39.3511 11.3484C35.7161 11.6684 35.7285 14.1998 33.4187 15.646C33.342 14.5609 34.1393 14.2695 34.4247 13.2094C32.3646 14.3177 30.5542 15.705 28.7867 17.1351C30.1904 17.0136 31.2035 16.8813 32.3468 16.6042C34.0413 16.193 35.0347 14.754 36.4242 14.5448C36.1067 15.8373 35.0954 16.5399 34.0252 17.1119C30.8914 18.7852 27.7647 16.9672 23.7729 18.9551C21.6718 20.0027 20.4446 22.0514 20.0879 24.3575C19.9666 25.1441 19.6937 25.9092 19.1854 26.4938C17.7513 28.1421 16.6098 29.8368 15.4754 31.6942C9.81955 40.9581 13.7614 43.4627 13.9594 48.2322C14.0628 50.7421 13.0783 53.3039 10.8737 54.7162C13.6793 50.1344 12.693 48.0231 11.1412 43.5717C10.1816 40.8187 10.8879 38.2175 12.0027 35.4394C8.93129 38.6215 9.2702 43.8649 10.9629 47.5118C11.9956 49.7375 11.9831 51.9363 10.6811 54.0923C8.07698 58.4042 6.07926 54.7735 3.28609 58.0914C3.1987 55.8604 5.109 54.8324 6.91225 54.5321C9.41288 54.1173 11.0146 51.9685 10.3796 49.4854C10.2744 49.0725 9.73392 48.5934 9.43606 48.3252C9.1257 47.2902 9.42895 46.1889 8.63881 45.2057L8.4997 46.8397C8.43191 47.6352 7.96275 48.5469 7.0103 48.5952L5.25881 47.9427C6.39676 39.0846 12.0777 28.7713 18.0546 22.1568C26.3235 13.0038 38.9391 5.42216 51.4441 4.07244Z" fill="#394E6D"/>
<path d="M5.34983 49.0418C6.0204 49.1044 5.40331 50.2414 6.30221 51.0297C6.6411 51.3283 7.38315 51.398 7.72918 51.0745C7.91288 50.9028 7.6346 50.3934 7.44197 49.9786C7.23328 49.5299 8.0859 49.3618 8.49792 49.5084C8.81897 49.621 9.17572 50.0984 9.19177 50.5543C9.2203 51.4338 8.90278 52.1953 8.31776 52.6905C7.73273 53.1857 6.88902 53.3681 6.10601 53.1446C5.25524 52.9015 4.64168 52.333 4.35452 51.6573C4.03525 50.9082 4.14937 49.8624 4.63095 49.31C4.75224 49.1705 5.19287 49.0275 5.34983 49.0418Z" fill="#394E6D"/>
<path d="M104.942 48.1089H104.941C104.941 48.1085 104.942 48.108 104.942 48.1076C104.942 48.108 104.942 48.1084 104.942 48.1089Z" fill="#394E6D"/>
<path d="M100.508 33.7687C102.799 37.7913 104.456 42.1838 105.376 46.811C105.422 47.3343 105.472 47.7094 104.942 48.1076C104.052 43.0598 102.411 38.4278 100.079 34.249C100.223 34.0863 100.366 33.9262 100.508 33.7687Z" fill="#394E6D"/>
<path d="M84.3182 18.1309C85.1333 17.2639 88.7987 20.4049 89.4943 20.9555C92.7016 23.4979 95.5236 26.4464 97.892 29.7113C97.7424 29.8478 97.594 29.9852 97.4465 30.1237C94.0335 25.4103 89.6216 21.3901 84.3182 18.1309Z" fill="#394E6D"/>
<path fill-rule="evenodd" clip-rule="evenodd" d="M65.7631 4.01692C76.1884 5.10742 85.6559 9.7197 93.5235 16.3485C96.9305 19.2189 99.9259 22.4929 102.441 26.085C102.432 26.0912 102.423 26.0973 102.414 26.1035L102.414 26.1038C101.438 26.7862 100.506 27.4912 99.6122 28.2239C98.4225 26.5723 97.1369 25.0131 95.7852 23.5743C93.067 20.6818 89.7298 18.6332 85.9235 17.5838C84.9283 17.3103 83.9401 17.3621 82.943 17.4837C79.1421 17.9485 75.6373 16.3431 73.3846 13.3094C72.6212 12.2833 71.9791 11.2678 71.3709 10.1451C70.6503 8.81331 69.4838 7.81404 67.9713 7.52621C67.5878 7.45292 67.0349 7.68884 67.0527 8.03205C67.6448 8.33059 68.2584 8.61309 68.517 9.04927C68.8434 9.60167 68.9558 10.3257 68.6579 10.8459C68.155 11.7237 67.2685 11.8149 66.3821 11.5718C65.6615 11.3751 65.0907 10.6958 64.9944 9.71971C64.7768 7.52799 67.174 7.42606 65.7631 4.01692ZM74.7598 12.5121C75.5393 14.6877 77.7706 16.0446 80.0804 16.2216C84.5073 16.563 88.203 14.7897 92.473 19.0283C92.8868 19.4394 93.3452 20.024 93.8499 20.0168C91.9825 17.2102 89.2232 15.6245 86.1589 14.8576C82.9805 14.0603 79.9875 15.7103 76.9286 14.239C76.1225 13.8511 75.6516 13.0484 74.7598 12.5121ZM78.1005 12.1581C75.2646 7.91236 69.4981 5.0824 70.1009 6.02092C70.3168 6.357 71.5724 7.24728 72.4874 8.14827C73.8055 9.44613 74.3959 8.49155 74.9256 9.48906L73.4114 9.43541C73.9554 10.365 74.2318 11.3197 74.9274 12.0241C76.9857 14.1103 80.3479 13.6616 83.009 12.9518H83.0073C82.9983 12.1653 79.3473 11.1016 78.5749 10.8174L79.7843 12.8554C79.0619 13.1038 78.4751 12.7195 78.1005 12.1581ZM67.7661 9.21021C67.6662 9.04217 67.0991 8.88484 66.9189 8.96349C66.5943 9.10294 66.3072 9.52129 66.3143 9.77514C66.3232 10.1058 66.6924 10.4151 66.976 10.4259C67.1882 10.433 67.6805 10.2041 67.7483 10.0003V9.99856C67.8535 9.68929 67.866 9.37825 67.7661 9.21021Z" fill="#394E6D"/>
<path d="M70.3666 10.8211C70.6199 10.8175 71.0052 11.1948 71.18 11.4308L73.5093 14.5825V14.5843L70.3808 14.0551C69.8297 13.9621 69.2197 13.4955 69.0699 13.0682C68.6758 11.9313 69.7816 10.8283 70.3666 10.8211Z" fill="#394E6D"/>
<path d="M53.0387 9.88234C53.3633 9.84302 53.7129 9.96462 53.9465 10.315C49.1593 11.1963 46.4856 11.6772 41.9052 13.599C42.0212 13.0752 42.5099 12.7034 43.0236 12.4871C46.243 11.1356 49.5535 10.2971 53.0387 9.88234Z" fill="#394E6D"/>
<path d="M58.6892 0C59.9609 0.899217 59.8325 2.49388 59.647 4.02772C60.3373 3.20717 60.7992 2.39376 61.5162 2.16315C62.4812 1.85209 63.5407 2.00041 64.2648 2.65649C62.8094 3.03549 61.6215 3.75419 61.5127 5.18972C61.4609 5.86188 61.5965 6.44645 62.1993 6.75036C62.5971 6.95058 63.4603 6.93984 63.7439 6.37314C63.8491 6.1479 63.216 5.86369 63.002 5.70101C62.5364 5.34704 62.8736 4.55865 63.2624 4.29765C63.6512 4.03664 64.4093 4.06342 64.791 4.45314C65.5347 5.21112 65.3617 6.38029 64.9247 7.21335C64.0846 8.81513 61.4163 8.94561 59.6666 7.29199C59.1208 8.99029 61.0863 9.81447 62.5204 9.9575C61.9318 10.8692 60.8883 10.8477 60.0197 10.5581C59.6719 11.5235 59.4097 12.1885 58.591 13.0645L58.5875 13.0627C57.9044 12.2404 57.6975 11.4877 57.355 10.551C56.6665 10.8084 55.6731 10.8871 55.4858 10.0862C56.7807 9.71258 57.9828 8.79728 57.6885 7.3725C56.4275 8.345 55.2378 8.93853 53.8323 8.45765C53.167 8.22883 52.516 7.67819 52.2984 7.18836C51.9435 6.38568 51.9345 5.50608 52.4518 4.84821C52.689 4.54788 53.2829 4.25654 53.5969 4.30479C53.9589 4.36199 54.3585 4.79644 54.4352 5.11465C54.5297 5.50794 54.3389 6.1729 54.0285 6.18185C53.6522 6.19258 53.5059 6.19441 53.3722 6.21765C53.2384 6.24089 53.4042 6.78963 53.5273 6.888C54.0196 7.27235 55.006 7.22768 55.4947 6.74143C56.053 6.18546 56.0458 5.50967 55.7711 4.70343C55.4019 3.61296 54.3674 3.33407 53.1706 2.88179C53.9483 2.01299 55.45 1.83241 56.365 2.52064C56.8948 2.9193 57.2034 3.53783 57.6636 4.13492C57.9828 2.76735 56.8592 1.65897 58.6892 0Z" fill="#394E6D"/>
<path d="M99.6431 85.9703C100.275 86.0596 100.961 86.1402 101.662 86.2007C101.982 86.2283 102.311 86.2524 102.644 86.2712C94.4724 99.4258 81.2984 108.718 65.1121 110.637L64.668 108.538C64.4736 107.618 64.5039 106.545 64.8303 105.63C65.1139 104.833 65.8577 104.35 66.5336 103.93C70.0866 101.729 71.4904 102.591 75.0951 101.048C74.915 102.821 72.1432 102.401 69.2466 103.51C68.7187 103.712 68.1978 104.323 67.718 104.584C66.6728 105.151 65.41 105.507 65.2905 106.937C66.1377 106.391 66.9118 105.943 67.916 105.989C68.74 107.947 70.9607 108.985 72.8977 108.204C74.8347 107.423 75.723 105.844 76.8894 104.355L80.1035 100.249C81.6803 98.2342 83.521 97.6174 86.2375 97.7943L83.8188 98.7973C81.9692 99.5642 80.3943 100.835 79.5149 102.83C81.509 102.476 83.1429 101.314 84.6375 99.8664L84.6269 99.8681C85.219 99.2943 85.9146 98.892 86.5442 98.4594C87.5912 97.7408 88.6525 97.1312 89.9153 96.8523C95.8458 95.5455 93.5539 92.1292 94.9719 90.6883C96.4302 89.2058 97.5761 87.5895 98.5558 85.7997L99.6431 85.9703Z" fill="#394E6D"/>
<path d="M29.6095 59.5805C29.4695 73.4795 23.4858 85.3848 11.2512 92.2307C7.65143 93.8863 4.1981 95.6249 0 95.357C8.30709 92.8687 15.4047 88.358 20.0357 80.9985C24.5489 73.8305 25.4814 62.7291 25.456 54.352C25.4432 49.4935 25.3255 44.8137 24.9849 40.0414C24.5616 34.0696 17.2985 36.6854 18.8358 34.2769C21.4011 34.0345 23.9187 34.6215 26.5827 34.7267C29.2467 34.832 35.7682 33.5815 35.6886 34.7331C35.5804 36.3058 31.7929 34.8161 30.5675 37.3107C29.8419 38.7877 29.7973 40.7974 29.7782 42.5456L29.6032 59.5837L29.6095 59.5805Z" fill="#394E6D"/>
<path d="M97.142 84.3766C98.6093 84.804 104.56 85.7472 107.394 84.8327C107.394 84.8327 96.6543 81.481 93.1063 76.2738C88.3416 69.2812 85.5949 62.5119 80.7125 55.2864L98.2242 34.7137C108.578 22.55 114.122 23.1789 116 21.7812C114.364 21.8692 107.263 24.0526 103.04 27.0034C99.144 29.7277 95.9676 32.8157 93.1476 36.6118C87.8515 43.748 82.5139 50.6257 76.7021 57.5258C78.0835 59.1304 79.2102 60.6872 80.1427 62.5119L87.0176 75.9676C89.1564 80.1498 92.6034 83.0495 97.142 84.3766Z" fill="#394E6D"/>
<path d="M52.0896 80.0986C55.8898 83.1578 58.9612 82.4178 59.3909 83.2504C59.5055 83.4737 58.9421 84.0287 58.6716 84.0351C51.0933 84.201 45.6603 82.673 42.1974 75.6006L35.7491 62.4193C34.9025 60.6935 33.8362 59.2739 32.5122 57.647L44.088 43.5724C45.4471 41.9232 48.5439 38.0696 47.3377 36.2895C47.0098 35.8046 45.9277 35.3963 45.2625 35.3644L44.2122 35.3102C43.948 35.2974 43.5915 34.3883 43.8684 34.3276C45.934 33.8778 48.4453 34.4138 50.7655 34.5159C53.0858 34.6179 56.2686 34.3181 58.6461 34.1713C58.7989 34.1618 59.289 34.586 59.2222 34.7232C58.6334 35.9769 55.6543 34.9082 51.9113 38.6247C46.5324 43.9648 41.5641 49.4358 36.5416 55.2066C38.7791 58.8432 40.6538 62.2215 42.5603 65.8135L46.4019 73.0518C47.936 75.7123 49.6929 78.1654 52.0896 80.0954V80.0986Z" fill="#394E6D"/>
<path d="M73.6626 79.2028C73.373 75.2695 73.4908 71.6073 73.4239 67.524L73.6595 40.1695C73.6659 39.0434 74.1274 37.5346 74.6907 36.9189C75.9511 35.5472 77.8226 35.7992 79.6495 35.2792C79.8468 35.225 79.8277 34.52 79.6495 34.4179C78.6119 33.8246 73.2489 34.9347 71.1005 34.7497L63.4013 34.0829C63.0639 34.0543 62.3128 34.7433 62.5038 34.9985C63.2995 36.0576 65.9412 35.1484 67.523 36.9157C68.5511 38.0609 68.9967 39.9494 69.003 41.5764C69.003 41.5764 69.2259 65.8981 69.1145 68.1623C69.003 70.4265 69.1145 74.9378 68.3473 78.9636C67.4458 83.6941 62.6693 82.3291 62.6693 83.2606C62.6662 85.0629 67.7108 83.1745 72.676 83.586V83.5892L79.2388 84.1346C79.5539 84.1601 79.869 83.0309 79.6144 82.9799C78.2744 82.7088 73.9141 82.6417 73.6626 79.2028Z" fill="#394E6D"/>
<path d="M88.6497 56.3738C88.3363 57.1878 87.4427 58.104 86.5236 57.9202C86.3245 57.8803 86.1841 57.728 86.1909 57.5212C86.1978 57.3011 86.352 57.1369 86.5377 57.0635C86.7532 56.9787 86.9331 57.0892 87.1133 57.2309C87.3714 57.4336 87.7186 57.2694 87.8646 57.0154C88.1515 56.5169 88.1547 55.935 87.8101 55.486C87.515 55.1017 87.0406 55.0394 86.6585 55.3549C85.8547 56.018 85.9018 56.9906 84.87 57.6712C84.3764 57.9967 83.6095 58.0701 83.4645 57.6987C83.4197 57.584 83.4357 57.3781 83.5057 57.2823C83.6136 57.1351 83.7651 57.0489 83.9376 57.0333C84.084 57.02 84.229 57.1374 84.3658 57.2396C84.6317 57.4387 84.9936 57.2511 85.1368 56.9847C85.3999 56.4958 85.4026 55.9212 85.0645 55.4915C84.7932 55.1467 84.3686 55.0398 83.9971 55.2934C83.4553 55.6635 83.1049 56.3358 82.807 56.9255C82.6812 57.175 82.1925 58.055 81.7574 57.9257L82.0521 57.4373C81.0473 57.9889 79.6624 57.8459 78.5016 57.7587C77.1894 57.6597 75.9248 57.7211 74.6094 57.9628C74.5778 57.7519 74.7201 57.6707 74.8148 57.5331C75.1246 57.0828 75.9641 55.365 75.238 55.1192C74.9621 55.0256 74.5929 55.1228 74.3843 55.3099C74.2251 55.9414 74.0301 56.538 73.6993 57.0988C73.5808 57.2997 73.013 58.1279 72.7312 57.8862L73.0098 57.4703C73.3036 57.0319 74.1015 55.3613 73.4106 55.1178C72.8099 54.9064 72.4626 55.5113 72.1318 55.4081C72.6923 54.285 73.1718 53.1019 74.0704 52.2508C74.5064 51.8376 75.2513 51.3685 75.7669 51.8417C75.9646 52.0233 76.0707 52.3058 76.0172 52.6163C75.9198 53.1817 75.4425 53.6664 74.8812 53.7911C74.6762 53.8365 74.4552 53.7512 74.3518 53.6325C74.2145 53.4747 74.1857 53.2523 74.2919 53.0735C74.4149 52.8662 74.5961 52.6795 74.8523 52.6406C74.8148 52.8029 74.7604 52.9327 74.7736 53.0276C74.7956 53.1831 75.1269 53.4142 75.3629 53.2546C75.5272 53.1432 75.5972 52.5181 75.184 52.2444C74.2013 51.5932 73.2208 54.0108 72.884 54.6533C73.213 54.5331 73.5072 54.4455 73.838 54.4497C74.1093 54.4529 74.28 54.6455 74.3504 54.9261C74.7494 54.6157 75.2001 54.4359 75.7061 54.4584C76.2121 54.4808 76.2446 55.0559 76.2011 55.4356C76.7246 54.9642 77.4891 54.263 78.2449 54.6124C78.6005 54.7771 78.7578 55.1375 78.8471 55.5126C79.4043 55.0096 79.9991 54.3735 80.7714 54.5551C81.1375 54.6413 81.4051 54.9463 81.4934 55.3104C81.681 56.0868 81.1558 56.7756 80.6552 57.28C81.0789 57.2616 81.4811 57.2433 81.8887 57.097C82.0397 57.0429 82.3335 56.9154 82.387 56.7503L83.3972 53.632C83.9545 51.9128 84.8298 50.2399 86.1049 48.9591C86.2005 48.8628 86.6723 48.4258 86.7679 48.5638C86.7871 48.5913 86.7757 48.7028 86.751 48.7289L86.2362 49.2732C85.5161 50.0349 85.0013 50.9127 84.5923 51.8807C84.1092 53.0244 83.75 54.1557 83.3826 55.3549L83.4334 55.3774C83.9348 54.8908 84.7465 54.2456 85.436 54.6455C85.7659 54.8367 85.9242 55.171 86.0061 55.57C86.6256 54.9321 87.6958 53.981 88.4836 54.9027C88.8721 54.5955 89.3374 54.4221 89.8366 54.4584C90.085 54.4762 90.2447 54.684 90.2845 54.9293L90.354 54.9743C91.2705 54.1438 92.6971 54.4932 93.8263 54.7097C96.5417 55.2306 96.383 54.2126 96.8702 54.2983C97.11 54.3405 96.1675 55.5099 94.6 55.4938C94.2783 55.4906 93.9567 55.4108 93.6382 55.4269C93.0901 55.4544 92.5603 55.6974 92.1233 55.9978C91.5427 56.3972 91.2288 57.0328 91.2645 57.7193C91.2979 58.3677 91.6672 58.9653 92.2601 59.3142C92.7877 59.6247 93.3852 59.6944 93.9992 59.6137C95.0772 59.472 95.6637 58.3994 95.4917 58.3714C95.1966 58.3232 94.8713 58.1238 94.7569 57.8317C94.6585 57.5794 94.7189 57.3382 94.8864 57.1786C95.0794 56.9947 95.37 57.02 95.5923 57.1667C95.8971 57.368 95.9721 57.6945 95.9634 58.1004C96.426 58.0357 96.9567 57.8358 97.25 57.4309C97.5506 57.0154 98.3211 55.3434 97.6101 55.1091C97.1054 54.9426 96.7604 55.3902 96.4951 55.3792C96.28 55.37 96.9361 54.3955 98.1143 54.4556C98.2854 54.4643 98.4149 54.5978 98.5265 54.7399L99.6854 53.0423C100.077 52.4691 100.514 51.9555 101.038 51.5074C101.5 51.1131 102.26 50.7311 102.735 51.2167C102.901 51.3873 102.999 51.6675 102.944 51.9541C102.772 52.8382 101.689 53.4481 101.251 52.9873C101.114 52.8433 101.075 52.6199 101.176 52.4136C101.371 52.0128 101.85 51.8064 101.732 52.0568C101.683 52.1609 101.635 52.309 101.684 52.4154C101.791 52.6516 102.127 52.7181 102.281 52.5988C102.434 52.4796 102.534 51.9224 102.154 51.623C101.396 51.0259 100.419 52.4576 100.038 53.018L98.6436 55.0641C98.5901 55.1426 98.5791 55.3361 98.5627 55.437C98.5741 55.4961 98.5832 55.5383 98.5929 55.5067C99.2119 54.9445 100.208 54.1773 101.014 54.6615C101.449 54.9229 101.617 55.4471 101.484 55.9249C101.337 56.4568 101.026 56.8535 100.608 57.2557C101.087 57.2759 101.543 57.2603 101.962 57.0452C102.107 56.9704 102.545 56.599 102.579 56.7774C102.657 57.1887 101.337 57.8931 100.446 57.8312L99.0344 57.7331C98.4364 57.6913 97.7903 57.6941 97.2321 57.9348C96.7893 58.1256 96.4077 58.4108 95.8742 58.3943C95.6738 58.9391 95.3233 59.3372 94.858 59.671C94.0331 60.263 92.9949 60.4529 92.0286 60.1117C91.5349 59.9374 91.1186 59.6114 90.8587 59.1583C90.4574 58.4594 90.5046 57.6368 90.9012 56.9374C91.2979 56.2381 91.9119 55.6993 92.617 55.2999C92.6294 55.293 92.6783 55.2572 92.6669 55.2545C92.1064 55.1068 90.7878 54.8858 90.3161 55.3856C90.134 56.0368 89.9299 56.6549 89.562 57.2314C89.1045 57.9486 88.6305 58.0376 88.6932 57.878C88.7335 57.7762 88.8675 57.6019 88.9412 57.4923C89.239 57.0489 90.0361 55.4067 89.363 55.1228C89.1416 55.0298 88.8776 55.0949 88.6634 55.1921C88.7783 55.5943 88.7998 55.9813 88.6493 56.3734L88.6497 56.3738ZM76.6065 57.2016C76.9963 57.1672 77.3939 57.1497 77.738 57.0759C78.1571 56.7068 78.2655 56.1042 78.0153 55.6319C77.8876 55.3911 77.6927 55.2256 77.4735 55.1756C77.2219 55.1178 76.9803 55.1765 76.7758 55.3384C76.526 55.5365 76.2991 55.7814 76.1357 56.0638L75.4174 57.3057L76.6065 57.2011V57.2016ZM79.807 57.2488C80.2165 57.2745 80.5244 57.0599 80.6854 56.7334C80.9435 56.2936 80.9083 55.7396 80.5431 55.3943C80.2183 55.0871 79.7932 55.0829 79.4451 55.3563C78.9029 55.8547 78.6599 56.5045 78.1393 57.1447L79.807 57.2488ZM99.7463 57.1676C100.238 57.1883 100.622 56.9521 100.766 56.5064C100.937 56.1115 100.836 55.669 100.536 55.4012C100.237 55.1334 99.8085 55.0692 99.426 55.2668C98.6418 55.6511 98.2447 56.527 97.8237 57.2814C98.4817 57.1479 99.0769 57.1401 99.7458 57.1681L99.7463 57.1676ZM95.6569 58.094C95.7113 57.8188 95.644 57.5547 95.4052 57.3969C95.3206 57.341 95.1513 57.3382 95.0827 57.3969C95.0108 57.4588 94.9792 57.6455 95.03 57.7317C95.1673 57.9642 95.4116 58.0793 95.6569 58.0935V58.094Z" fill="#394E6D"/>
<path d="M55.1294 55.1192C54.832 55.0238 54.4166 55.1453 54.2295 55.3567C54.0588 55.918 53.8886 56.4339 53.6287 56.9723C52.2557 59.815 49.9607 63.3268 47.673 65.4867L46.9368 66.1819C46.833 66.2795 46.7113 66.3346 46.5511 66.3538C46.5745 66.2231 46.6262 66.1346 46.7131 66.0489C47.2507 65.5183 47.7773 65.024 48.2861 64.4617C50.0654 62.4954 51.4852 60.2525 52.6889 57.9848C52.2506 58.2219 51.8896 58.3695 51.4261 58.4021C50.8428 59.8494 49.0772 60.6418 47.5774 60.1117C47.0841 59.9374 46.6673 59.6114 46.4075 59.1588C45.9993 58.448 46.0565 57.6124 46.4665 56.9076C46.8824 56.1927 47.4909 55.68 48.2376 55.2535C47.7421 55.1384 47.2649 55.0806 46.7556 55.0715C46.084 55.0591 45.8685 55.4901 45.6077 55.458C45.3936 55.4319 46.1371 54.3909 47.4991 54.4478C48.8525 54.5042 49.6999 54.9114 51.0221 54.8527C51.9125 54.8133 52.1051 54.2401 52.4204 54.2992C52.6592 54.3442 51.7158 55.5112 50.1501 55.4952C49.8284 55.492 49.5068 55.4122 49.1883 55.4282C48.6402 55.4558 48.1104 55.6983 47.6735 55.9992C47.0933 56.3986 46.7785 57.0337 46.8147 57.7207C46.849 58.3682 47.2155 58.9671 47.8116 59.3156C48.8809 59.9411 50.5765 59.7324 51.1063 58.3929C50.7522 58.3246 50.4457 58.1549 50.3061 57.8293C50.2022 57.5868 50.2736 57.3336 50.4356 57.1795C50.6209 57.003 50.894 57.0186 51.1127 57.1488C51.4358 57.3414 51.5277 57.6844 51.5103 58.1013C52.1445 58.0242 52.7644 57.6588 53.0952 57.0874C53.3071 56.721 53.9115 55.337 53.2915 55.1219C52.6395 54.8954 52.2758 55.5365 52.0223 55.3966C52.1975 55.0013 52.5576 54.8289 52.8903 54.623C53.5285 54.2277 55.4168 52.9827 54.6733 52.088C54.4921 51.8701 54.1585 51.7615 53.8772 51.916C53.7285 51.9976 53.7047 52.221 53.7472 52.3828C53.7802 52.508 53.938 52.7158 54.1128 52.6736C54.2317 52.6451 54.3292 52.5328 54.4587 52.5979C54.3388 52.8593 54.1471 53.0322 53.917 53.139C53.6333 53.2706 53.3139 53.1358 53.2261 52.8226C53.1762 52.6451 53.1977 52.4044 53.2929 52.2301C53.679 51.523 54.6206 51.0387 55.1669 51.5959C55.6121 52.0499 55.2612 52.7657 54.9112 53.2129C54.5232 53.709 54.0625 54.0965 53.5734 54.4804C53.8959 54.423 54.1215 54.617 54.2102 54.961C54.5891 54.6083 55.829 54.0938 56.0568 54.8174C56.1127 54.9949 56.1067 55.2063 56.104 55.4392C56.6077 54.9655 57.4148 54.2497 58.1597 54.6193C58.5005 54.7885 58.6616 55.1306 58.7417 55.508L59.3616 54.9683C59.6014 54.7596 59.901 54.6014 60.2067 54.5418C60.6674 54.4524 61.0719 54.6491 61.3011 55.0559C61.6932 54.601 63.0498 54.069 63.247 54.8491C63.2932 55.0329 63.29 55.2517 63.285 55.4548C63.7471 54.955 64.6388 54.2139 65.3594 54.6537C65.6843 54.8518 65.8325 55.1916 65.9181 55.5631C66.3097 55.1517 66.6963 54.8078 67.1854 54.6078C67.6993 54.3978 68.219 54.5698 68.4903 55.0568C69.0412 56.0459 68.2405 57.3341 67.2568 57.8041C66.9754 57.9385 66.6693 57.9811 66.3779 57.9059C66.2031 57.8605 66.0947 57.6982 66.0988 57.5226C66.1043 57.2928 66.2658 57.1337 66.4511 57.0608C66.6721 56.9736 66.8455 57.0929 67.0308 57.2355C67.2948 57.4396 67.6576 57.2419 67.7981 56.9736C68.052 56.4889 68.0671 55.918 67.7208 55.492C67.5757 55.3136 67.3657 55.1751 67.1749 55.154C66.5133 55.0802 66.0485 55.9391 65.7845 56.4655C65.4866 57.0603 65.0629 57.5629 64.4503 57.8349C64.1456 57.9701 63.7132 58.0265 63.463 57.8023C63.2337 57.5968 63.3737 57.2676 63.5728 57.1241C63.818 56.9475 64.0564 57.0566 64.2883 57.2387C64.5606 57.4515 64.9284 57.2208 65.0648 56.9448C65.3178 56.4321 65.305 55.8396 64.917 55.4232C64.6196 55.104 64.1781 55.0582 63.8409 55.3384C63.5947 55.5429 63.3678 55.7887 63.2049 56.0716L62.6005 57.1199C62.4774 57.3336 61.9737 58.11 61.6525 57.9027L61.9064 57.4978L61.9105 57.457C60.9378 57.9743 59.5895 57.85 58.4726 57.7624C57.1298 57.6569 55.8349 57.7188 54.5003 57.9619C54.482 57.7491 54.6284 57.6629 54.7245 57.5212C55.0947 56.9746 55.333 56.3426 55.4309 55.6869C55.463 55.4727 55.36 55.1916 55.1299 55.1178L55.1294 55.1192ZM62.2848 56.7673C62.4756 56.4137 62.8901 55.2815 62.3017 55.1132C61.9851 55.0229 61.6653 55.1503 61.4118 55.3342C61.5253 56.189 61.1044 56.6687 60.5837 57.2708C61.0289 57.302 62.0794 57.1479 62.2848 56.7673ZM56.3945 57.2107L57.6331 57.092C58.0581 56.6889 58.183 56.0863 57.8902 55.5814C57.6312 55.1348 57.106 55.0164 56.685 55.326C56.4444 55.531 56.2092 55.7639 56.045 56.0473L55.3152 57.3079L56.3941 57.2103L56.3945 57.2107ZM59.7318 57.2479C60.123 57.2713 60.4153 57.0553 60.5759 56.7526C60.8257 56.333 60.8221 55.8102 60.5009 55.453C60.1747 55.0903 59.7043 55.06 59.3319 55.3673C58.8048 55.8607 58.5307 56.5458 58.0389 57.1461L59.7318 57.2479ZM51.2052 58.093C51.2596 57.8179 51.1919 57.5537 50.9535 57.396C50.8689 57.34 50.6996 57.3373 50.631 57.396C50.5591 57.4579 50.5275 57.645 50.5783 57.7308C50.7156 57.9633 50.9599 58.0784 51.2052 58.0926V58.093Z" fill="#394E6D"/>
<path d="M27.3487 55.3763C27.0065 55.6785 26.7924 56.066 26.5924 56.4673C26.2905 57.0717 25.8544 57.5844 25.2271 57.8494C24.9293 57.9751 24.5102 58.0214 24.2704 57.804C24.0307 57.5866 24.1808 57.2702 24.3807 57.1258C24.6255 56.9492 24.8643 57.0588 25.0963 57.2404C25.3685 57.4537 25.7364 57.2225 25.8727 56.9465C26.1257 56.4338 26.1129 55.8413 25.7249 55.4249C25.4275 55.1053 24.9865 55.0603 24.6484 55.3401C24.3835 55.5588 24.1551 55.8266 23.9776 56.1302L23.2369 57.3963C23.069 57.6834 22.8091 57.8517 22.535 57.9934C22.1392 58.1984 21.7622 58.3786 21.2887 58.4015C20.7076 59.8502 18.9393 60.6421 17.4404 60.112C16.9472 59.9378 16.5303 59.6117 16.2705 59.1591C15.8623 58.4483 15.92 57.6128 16.3295 56.908C16.7449 56.193 17.3544 55.6803 18.1001 55.2539C17.4477 55.1126 16.2444 54.8792 15.7292 55.3846C15.5485 56.0403 15.3417 56.6654 14.9724 57.2367C14.8718 57.3927 14.325 58.1287 14.0885 57.8893L14.3726 57.4647C14.665 57.0272 15.4716 55.3465 14.7446 55.1108C14.2267 54.943 13.8776 55.4089 13.6309 55.3781C13.3843 55.3474 14.2289 54.2899 15.3494 54.4821C15.5778 54.5215 15.6683 54.7802 15.7269 54.998C16.685 54.1487 18.0461 54.4807 19.238 54.7109C21.9411 55.2337 21.7984 54.2147 22.282 54.3C22.5222 54.3422 21.5797 55.5116 20.0117 55.4955C19.6901 55.4923 19.3684 55.4125 19.05 55.4286C18.5019 55.4561 17.972 55.6987 17.5351 56C16.9549 56.3994 16.6401 57.0345 16.6768 57.7215C16.7111 58.3681 17.0766 58.9683 17.6742 59.3164C18.7489 59.9423 20.4354 59.7323 20.9689 58.3942C20.6138 58.3245 20.3077 58.1562 20.1686 57.8297C20.0652 57.5876 20.1357 57.3349 20.2981 57.1803C20.4926 56.9955 20.7817 57.0212 21.005 57.168C21.3075 57.367 21.388 57.6976 21.3738 58.1021C21.996 58.026 22.6087 57.6729 22.9386 57.1157C23.1577 56.7452 23.7795 55.3199 23.1101 55.1135C22.6032 54.9576 22.2422 55.4015 22.0093 55.3919C21.7764 55.3823 22.4101 54.4647 23.5306 54.4555C23.7813 54.4532 23.9918 54.599 24.0559 54.8508C24.1025 55.0342 24.0989 55.2539 24.0938 55.4561C24.5468 54.9714 25.39 54.2555 26.1106 54.6233C26.4703 54.8068 26.6373 55.1718 26.7265 55.5643C27.1181 55.1539 27.5047 54.8086 27.9938 54.6091C28.483 54.4096 29.005 54.561 29.2823 55.0296C29.8647 56.0146 29.0631 57.3285 28.0652 57.8054C27.7838 57.9397 27.4778 57.9824 27.1868 57.9072C27.012 57.8618 26.9035 57.699 26.9077 57.5238C26.9132 57.2941 27.0747 57.1349 27.26 57.062C27.481 56.9754 27.6548 57.0941 27.8392 57.2367C28.1041 57.4417 28.4656 57.2413 28.606 56.9763C28.8709 56.4769 28.8668 55.8968 28.5132 55.4717C28.2039 55.1002 27.7335 55.0365 27.3492 55.3758L27.3487 55.3763ZM21.0704 58.0915C21.1194 57.7916 21.0457 57.55 20.8156 57.3963C20.7319 57.3404 20.5617 57.3381 20.4935 57.3968C20.4217 57.4587 20.3901 57.6458 20.4409 57.7311C20.5781 57.9636 20.8252 58.0828 21.0704 58.0915Z" fill="#394E6D"/>
<path d="M43.3749 58.0839C43.2418 58.5462 42.9632 58.8846 42.6424 59.2139C41.7031 60.1764 40.2939 60.5561 39.0316 60.0677C38.3906 59.8196 37.89 59.3258 37.7075 58.6709C37.2961 57.1947 38.5658 55.8594 39.7824 55.2302C39.1034 55.127 37.7651 54.8588 37.3327 55.4324C37.1479 55.913 37.0161 56.3835 36.7855 56.8632C35.1576 60.2548 32.8329 63.6653 30.031 66.1879C29.9175 66.2901 29.7999 66.3539 29.6343 66.3406C29.7596 66.0425 29.9692 65.8976 30.1829 65.6958C31.2887 64.6503 32.2665 63.5121 33.1605 62.2675C34.2952 60.6873 35.2839 59.0378 36.1349 57.2933C36.3916 56.7674 36.5847 56.2418 36.6771 55.6892C36.7224 55.4187 36.5581 55.1307 36.307 55.0894C35.9629 55.033 35.6435 55.1623 35.3795 55.3728C35.725 56.6545 34.4919 57.795 33.2817 57.9376C32.6659 58.0101 32.1361 57.7061 31.9023 57.1383C31.7083 56.6674 31.7408 56.1588 31.9297 55.6792C32.8393 53.3688 35.7305 50.3675 37.5661 48.6671C37.7294 48.5157 37.8928 48.4098 38.0996 48.3516C38.1298 48.4956 38.0694 48.6079 37.9669 48.7037C36.2562 50.3097 34.3958 52.1898 33.1545 54.1883C32.8814 54.6281 32.6572 55.0592 32.5131 55.5572C32.3227 56.2134 32.5849 56.9586 33.2305 57.2333C33.6093 57.3942 34.1058 57.3209 34.4475 57.0856C34.7893 56.8504 34.8703 56.2863 34.636 55.9818C34.4443 55.7323 34.3926 55.4948 34.5706 55.26C34.7486 55.0252 35.0396 55.0023 35.2876 55.1825C35.687 54.6804 36.3243 54.3938 36.9608 54.5038C37.1818 54.5419 37.2646 54.7923 37.3309 55.0257C37.8058 54.6162 38.3846 54.4075 39.038 54.4419C39.6419 54.474 40.218 54.5726 40.8095 54.6909C43.6188 55.2513 43.4944 54.1603 43.9304 54.292C44.2287 54.3818 42.9398 55.5535 41.8061 55.4888L40.681 55.4251C40.0866 55.3912 39.5262 55.7374 39.0627 56.0836C38.3562 56.6119 38.1211 57.5222 38.4642 58.3325C38.682 58.8465 39.108 59.2363 39.6319 59.4427C40.6357 59.838 42.2233 59.7068 42.6809 58.5705C42.7596 58.3751 42.7376 58.177 42.6044 58.0243C42.426 57.8198 42.4114 57.563 42.5738 57.3708C42.7362 57.1787 43.0455 57.0888 43.2436 57.2892C43.4417 57.4896 43.4559 57.8005 43.3745 58.0826L43.3749 58.0839Z" fill="#394E6D"/>
<path d="M64.116 58.8375C61.7427 58.4028 61.8498 59.331 61.525 59.2016C61.3397 59.1278 62.0928 58.2542 63.3446 58.2258C64.7959 58.1932 66.5532 59.0925 67.5758 58.1102C67.6102 58.0772 67.7049 58.0694 67.7319 58.0768C67.768 58.0859 67.7538 58.2065 67.7181 58.2464C66.7253 59.3626 65.4131 59.0746 64.116 58.8371V58.8375Z" fill="#394E6D"/>
<path d="M92.6729 51.3734C92.36 51.6885 90.5637 53.4338 90.3116 53.493C90.2754 53.5012 90.189 53.4586 90.1935 53.4219C90.2265 53.1486 92.0516 51.3991 92.3796 51.085C92.4373 51.0295 92.6107 51.0446 92.6606 51.085C92.7177 51.1308 92.7374 51.3092 92.6724 51.3744L92.6729 51.3734Z" fill="#394E6D"/>
<path d="M59.1476 53.4444C59.0987 53.4857 58.9413 53.509 58.9303 53.4623C58.9193 53.4155 58.939 53.2949 58.9733 53.2564C59.6628 52.491 60.3615 51.7931 61.104 51.08C61.1539 51.0323 61.3301 51.0442 61.3808 51.0832C61.439 51.1281 61.4573 51.3079 61.3927 51.373C60.6698 52.1003 59.9437 52.7726 59.1476 53.4444Z" fill="#394E6D"/>
<path d="M15.8383 53.445C15.7907 53.4854 15.6324 53.5074 15.6223 53.4606C15.6123 53.4138 15.631 53.2942 15.6653 53.2561C16.3549 52.4917 17.053 51.7946 17.7943 51.0811C17.8437 51.0338 18.0207 51.0425 18.0729 51.0811C18.1324 51.1251 18.1507 51.3058 18.0862 51.3709C17.3628 52.1 16.6349 52.7728 15.8383 53.4446V53.445Z" fill="#394E6D"/>
<path d="M21.7216 51.3962C21.4072 51.7076 19.6265 53.4332 19.3795 53.4924C19.3433 53.5011 19.2559 53.458 19.261 53.4208C19.2998 53.1425 21.1176 51.4003 21.4475 51.0839C21.5225 51.0119 21.7147 51.05 21.7522 51.1142C21.7897 51.1784 21.7907 51.3274 21.7216 51.3962Z" fill="#394E6D"/>
<path d="M79.2575 53.4418C79.21 53.4817 79.0869 53.4964 79.0503 53.4758C79.0064 53.451 79.0274 53.3185 79.0686 53.2726C79.7425 52.516 80.4988 51.7648 81.2094 51.0843C81.2661 51.0302 81.4304 51.0462 81.4821 51.0779C81.542 51.115 81.5594 51.3145 81.505 51.3691C80.7807 52.0959 80.0587 52.7677 79.2575 53.4414V53.4418Z" fill="#394E6D"/>
<path d="M69.6433 53.9277C69.5216 53.885 69.6109 53.6947 69.6772 53.6347C70.0922 53.26 70.2198 52.7909 70.2372 52.2365C70.2459 51.9503 70.6133 51.6788 70.8842 51.6582C71.0507 52.4107 70.3942 53.6603 69.6433 53.9277Z" fill="#394E6D"/>
<path d="M41.2425 53.0571C41.2209 53.1002 41.1066 53.1369 41.0754 53.1195C40.9048 53.0237 41.1843 51.7754 41.2447 51.5535C41.2855 51.4044 41.4735 51.321 41.5737 51.3356C41.7192 51.3572 41.8441 51.5223 41.7938 51.7176C41.6831 52.1464 41.4355 52.6683 41.2425 53.0567V53.0571Z" fill="#394E6D"/>
<path d="M41.403 53.5414C41.375 53.5684 41.257 53.5771 41.23 53.5542C41.0223 53.3786 41.7182 52.4779 42.0041 52.2578C42.1071 52.1785 42.2874 52.1748 42.3633 52.2335C42.453 52.3023 42.4695 52.521 42.3702 52.6164L41.403 53.5414Z" fill="#394E6D"/>
<path d="M40.3738 51.8545C40.9983 51.5624 41.0454 53.6301 40.7027 53.5507C40.6588 53.5407 40.5879 53.4512 40.5815 53.4054C40.522 52.9702 40.4227 52.6038 40.2589 52.2076C40.2036 52.0741 40.253 51.9109 40.3733 51.8545H40.3738Z" fill="#394E6D"/>
<path d="M87.6724 52.1857C87.5736 52.3971 87.116 53.2945 86.9348 53.3454C86.6562 53.4238 87.2565 52.0912 87.2986 52.0036C87.343 51.9115 87.4939 51.8693 87.5699 51.8899C87.6458 51.9105 87.7241 52.0743 87.6719 52.1852L87.6724 52.1857Z" fill="#394E6D"/>
<path d="M38.0522 52.1846C37.9529 52.3979 37.4995 53.2884 37.3151 53.3471C37.031 53.4375 37.6386 52.087 37.6784 52.0044C37.7223 51.9132 37.8742 51.871 37.9502 51.8921C38.0261 51.9132 38.1035 52.0755 38.0527 52.1851L38.0522 52.1846Z" fill="#394E6D"/>
<path d="M51.2049 58.0925C50.9597 58.0783 50.7154 57.9632 50.5781 57.7307C50.5273 57.6445 50.5589 57.4579 50.6307 57.396C50.7026 57.334 50.8687 57.3395 50.9533 57.396C51.1917 57.5537 51.2594 57.8174 51.2049 58.093V58.0925Z" fill="#394E6D"/>
<path fill-rule="evenodd" clip-rule="evenodd" d="M49.635 94.9256L50.6038 94.768L49.643 94.6292L49.7837 94.2956L49.5141 94.4753L49.3617 93.5331L49.2231 94.4967L48.9277 94.2999L49.0688 94.6346L48.1089 94.7908L49.0598 94.9281L48.919 95.2619L49.2016 95.0736L49.3556 96.0256L49.4932 95.0699L49.775 95.2576L49.635 94.9256ZM53.315 90.7629L54.2838 90.6052L53.323 90.4665L53.4636 90.1331L53.1942 90.3126L53.0417 89.3706L52.9031 90.3342L52.6078 90.1372L52.7488 90.4718L51.7889 90.628L52.7398 90.7654L52.599 91.0993L52.8816 90.9111L53.0357 91.863L53.1732 90.9071L53.455 91.095L53.315 90.7629ZM56.2064 86.6717L57.1752 86.5141L56.2144 86.3752L56.3551 86.0418L56.0855 86.2213L55.9331 85.2793L55.7946 86.2429L55.4991 86.046L55.6404 86.3807L54.6803 86.5367L55.6313 86.6741L55.4906 87.008L55.773 86.8197L55.927 87.7717L56.0646 86.816L56.3464 87.0037L56.2064 86.6717ZM62.2523 86.6717L63.221 86.5141L62.2603 86.3752L62.4009 86.0418L62.1315 86.2213L61.9788 85.2793L61.8404 86.2429L61.5451 86.046L61.6863 86.3807L60.7262 86.5367L61.6773 86.6741L61.5364 87.008L61.8189 86.8197L61.973 87.7717L62.1103 86.816L62.3922 87.0037L62.2523 86.6717ZM65.1963 90.7629L66.1649 90.6052L65.2041 90.4665L65.3447 90.1331L65.0755 90.3126L64.9226 89.3706L64.7842 90.3342L64.4889 90.1372L64.6301 90.4718L63.6702 90.628L64.6211 90.7654L64.4802 91.0993L64.7627 90.9111L64.9168 91.863L65.0543 90.9071L65.3362 91.095L65.1963 90.7629ZM68.9286 94.9256L69.8977 94.768L68.9366 94.6292L69.0775 94.2956L68.8079 94.4753L68.6554 93.5331L68.517 94.4967L68.2217 94.2999L68.3626 94.6346L67.4026 94.7908L68.3535 94.9281L68.213 95.2619L68.4955 95.0736L68.6496 96.0256L68.7871 95.0699L69.0688 95.2576L68.9286 94.9256ZM58.9252 91.2687C58.9478 91.2573 58.9728 91.2496 58.9984 91.2436C59.0114 91.3857 59.0327 91.509 59.0596 91.5841C59.0677 91.5524 59.0759 91.5221 59.0841 91.4917C59.0912 91.5184 59.0983 91.5446 59.1054 91.5724C59.1298 91.5047 59.1493 91.3973 59.1624 91.2724C59.1884 91.7686 59.2294 92.2616 59.2724 92.7548H59.2863V90.8758C59.3307 90.7707 59.3814 90.6644 59.4436 90.5523C59.6483 90.1826 59.9308 89.8431 60.1172 89.4664C60.2859 89.125 60.382 88.8532 60.4165 88.4777C60.4355 88.2729 60.4794 87.5607 60.7969 87.5826V87.5614C60.7342 87.5479 60.6687 87.5573 60.6123 87.5879C60.3793 87.7219 60.31 88.2088 60.2686 88.4509C60.2024 88.8404 60.0056 89.1164 59.8047 89.4468C59.6135 89.7607 59.2614 89.9874 59.086 90.2984L59.0855 90.2973C58.9122 89.9808 58.5542 89.7526 58.3608 89.4353C58.1599 89.1049 57.963 88.829 57.8965 88.4393C57.8553 88.1972 57.786 87.7103 57.553 87.5763C57.4965 87.5458 57.431 87.5364 57.3682 87.5498V87.571C57.6859 87.5491 57.7296 88.2613 57.7487 88.4664C57.7833 88.8416 57.8793 89.1136 58.0481 89.455C58.2343 89.8315 58.517 90.171 58.7217 90.5409C58.7706 90.6293 58.8129 90.7139 58.8502 90.7972C58.8787 91.2359 58.8728 92.7554 58.8728 92.7554H58.8803C58.8833 92.2873 58.8852 91.8189 58.8852 91.3497L58.9252 91.2687ZM58.7289 92.662C58.5428 92.4609 58.3621 92.22 58.1771 92.0273C57.727 91.5587 56.7843 91.4144 56.4527 91.3389C56.1051 91.2598 55.8313 90.8737 56.1856 90.5285C56.4196 90.3005 56.8408 90.4425 56.8351 90.7575C56.8614 90.7595 56.7683 91.0614 56.9092 90.7586C56.9296 90.5976 56.8127 90.4629 56.6906 90.3712C56.5062 90.2326 56.4967 90.293 56.2995 90.3418C56.0484 90.4043 55.921 90.3215 55.7723 90.124C55.5752 89.8622 55.5229 89.6315 55.2095 89.475C54.9152 89.328 54.6076 89.3421 54.2879 89.3348C54.4688 89.4582 55.2095 89.387 55.5309 89.8716C55.6081 89.9881 55.6742 90.132 55.7476 90.2458C55.9034 90.4875 55.865 90.8754 55.9631 91.1978C56.0704 91.5503 56.4516 91.5708 56.7747 91.6327C57.2013 91.7147 57.7213 91.86 58.0024 92.182C58.1808 92.3861 58.3152 92.6011 58.4472 92.8394C58.5679 93.0567 58.6764 93.5383 58.8721 93.7262C58.8749 93.4354 58.8769 93.1443 58.8788 92.8533C58.8277 92.786 58.7783 92.7151 58.7289 92.662ZM59.7482 92.8396C59.8804 92.6015 60.0147 92.3865 60.1931 92.1824C60.4742 91.8604 60.9942 91.7149 61.421 91.6331C61.7437 91.5711 62.1253 91.5505 62.2324 91.1982C62.3307 90.8758 62.2921 90.4879 62.448 90.2462C62.5215 90.1324 62.5875 89.9885 62.6646 89.872C62.9864 89.3873 63.7271 89.4586 63.9078 89.3353C63.5881 89.3426 63.2807 89.3284 62.9862 89.4753C62.6728 89.6319 62.6203 89.8625 62.4233 90.1245C62.2747 90.3219 62.1473 90.4047 61.896 90.3424C61.699 90.2934 61.6892 90.233 61.5049 90.3717C61.3826 90.4635 61.2657 90.5981 61.2863 90.7591C61.4276 91.0617 61.3343 90.76 61.3606 90.7581C61.3551 90.443 61.7761 90.301 62.0099 90.529C62.3643 90.8742 62.0904 91.2603 61.743 91.3394C61.4116 91.4149 60.4686 91.5592 60.0184 92.0278C59.8334 92.2205 59.6525 92.4617 59.4667 92.6627C59.4073 92.7269 59.3476 92.8163 59.2849 92.8946C59.3082 93.1614 59.3318 93.4282 59.3537 93.6959C59.5306 93.4895 59.6341 93.0455 59.7482 92.8396ZM52.7197 92.9889H52.7325C52.7262 92.9819 52.7218 92.9735 52.7197 92.9645V92.9889ZM58.7834 96.5891C58.662 96.5038 58.5586 96.4149 58.4687 96.2952C58.3848 96.1836 58.2979 96.107 58.221 95.9928C58.1826 95.9358 58.1334 95.8899 58.0938 95.8405C57.9617 95.676 57.8124 95.5454 57.6156 95.4631C57.3017 95.332 56.9074 95.3568 56.5771 95.2738C56.5258 95.2615 56.4737 95.2533 56.4212 95.249C56.41 95.236 56.3985 95.2233 56.3866 95.2109L56.3729 95.197C55.9304 95.1954 55.8513 94.4158 55.9841 94.1311C56.0649 93.9576 56.1513 93.8096 56.1634 93.6072C56.1764 93.3907 56.1147 93.1639 56.3695 93.0993C56.715 93.0117 57.0974 93.2389 57.0919 93.6092C57.2276 93.4151 56.9113 93.0697 56.7414 92.9924C56.6187 92.9367 56.4404 92.9326 56.3039 92.9479C56.1621 92.9639 56.1213 93.033 56.015 93.115C55.7101 92.8668 55.6847 92.5448 55.6847 92.1753C55.6847 91.7572 55.6114 91.4974 55.1492 91.3905C55.2255 91.5921 55.5089 91.626 55.5476 91.8855C55.5825 92.1181 55.5066 92.35 55.495 92.5755C55.4831 92.81 55.5679 93.0001 55.7024 93.1826C55.8197 93.3419 55.9336 93.5219 55.9057 93.7349C55.8558 94.1179 55.588 94.5224 55.7094 94.9379C55.7435 95.0554 55.8277 95.2004 55.9155 95.2973C55.7319 95.3199 55.5564 95.323 55.3445 95.2558C55.1674 95.1997 54.9765 95.1069 54.8198 95.0091C54.5507 94.8413 54.2794 94.7624 54.1358 94.457C53.9188 93.9955 53.8229 93.5075 53.3932 93.1965C53.2214 93.072 52.9472 92.9798 52.7325 92.9889C52.7913 93.0621 53.0426 93.1477 53.1226 93.1848C53.2953 93.2651 53.4119 93.3545 53.5226 93.515C53.7607 93.8602 53.7246 94.2595 53.8916 94.6401C53.9848 94.8524 54.1509 95.048 54.3249 95.2034C54.3956 95.2665 54.4742 95.3441 54.5511 95.3967C54.657 95.4692 54.7723 95.453 54.8964 95.4881C55.1517 95.5602 55.4238 95.5882 55.6971 95.5947C56.3654 95.6111 57.2564 95.4765 57.6971 96.1059C57.8752 96.3604 58.0076 96.5986 58.2519 96.7941C58.3944 96.9083 58.5373 97.0132 58.6615 97.1486C58.707 97.1982 58.7619 97.3144 58.8296 97.3717C58.8325 97.1236 58.8357 96.876 58.8387 96.6283C58.8236 96.6169 58.8056 96.6046 58.7834 96.5891ZM59.5664 97.1486C59.6902 97.0134 59.8333 96.9083 59.9756 96.7941C60.2203 96.5984 60.3525 96.3602 60.5306 96.1059C60.9711 95.4765 61.8619 95.6111 62.5304 95.5947C62.8039 95.5882 63.076 95.5602 63.3311 95.4881C63.4554 95.453 63.5707 95.4692 63.6764 95.3967C63.7535 95.344 63.8323 95.2665 63.9026 95.2034C64.0768 95.048 64.2431 94.8524 64.336 94.6401C64.5029 94.2595 64.4668 93.8602 64.705 93.515C64.8157 93.3545 64.9322 93.2651 65.1048 93.1848C65.1849 93.1477 65.4362 93.0622 65.4952 92.989C65.2803 92.9799 65.0062 93.072 64.8343 93.1965C64.4046 93.5077 64.3085 93.9955 64.0919 94.457C63.9481 94.7624 63.6768 94.8412 63.4077 95.0091C63.2512 95.1069 63.06 95.1997 62.883 95.2558C62.671 95.323 62.4956 95.3201 62.312 95.2973C62.3998 95.2004 62.4839 95.0554 62.5182 94.9379C62.6394 94.5224 62.3717 94.1179 62.3218 93.7349C62.2941 93.5219 62.4078 93.3417 62.5253 93.1826C62.66 93.0001 62.7446 92.81 62.7325 92.5755C62.7211 92.35 62.645 92.1181 62.6797 91.8855C62.7186 91.626 63.002 91.5923 63.0781 91.3905C62.6157 91.4974 62.5429 91.7572 62.5429 92.1753C62.5429 92.5448 62.5171 92.8668 62.2125 93.115C62.1059 93.033 62.065 92.9641 61.9234 92.9479C61.7869 92.9326 61.6087 92.9365 61.4857 92.9924C61.316 93.0697 60.9999 93.4151 61.1355 93.6092C61.13 93.2389 61.5124 93.0118 61.8576 93.0993C62.1125 93.1639 62.051 93.3905 62.0638 93.6072C62.0759 93.8098 62.1624 93.9578 62.2433 94.1311C62.3758 94.4158 62.2967 95.1954 61.8543 95.197L61.8408 95.2109C61.8288 95.2232 61.8172 95.2359 61.8061 95.249C61.7536 95.2533 61.7015 95.2615 61.6503 95.2738C61.3199 95.3568 60.9256 95.332 60.6118 95.4631C60.4147 95.5454 60.2654 95.676 60.1336 95.8405C60.094 95.8899 60.0447 95.9358 60.0062 95.9928C59.9294 96.1072 59.8423 96.1836 59.7583 96.2952C59.6684 96.4149 59.5653 96.5038 59.4437 96.5891L59.4427 96.5897C59.4406 96.8394 59.4364 97.0892 59.4302 97.3389C59.4834 97.2777 59.5282 97.19 59.5664 97.1486ZM65.5078 92.9645C65.5058 92.9735 65.5015 92.9819 65.4954 92.9889H65.5078V92.9645Z" fill="#394E6D"/>
<path fill-rule="evenodd" clip-rule="evenodd" d="M58.5157 94.2869C58.3284 94.0697 57.9801 93.8622 57.6889 93.944C57.3882 94.0284 57.232 94.4051 57.3024 94.7004C57.3432 94.8719 57.5554 95.1565 57.7288 95.1911C57.6857 95.107 57.5538 95.0837 57.503 94.9743C57.4594 94.8812 57.4468 94.7428 57.4383 94.6383C57.4148 94.3438 57.5611 94.1593 57.8698 94.2058C58.1134 94.2427 58.4153 94.432 58.5276 94.6571C58.6499 94.9027 58.6547 95.1918 58.8277 95.4093C58.8363 95.4201 58.8448 95.4301 58.853 95.4397L58.8597 94.901C58.724 94.756 58.6101 94.3964 58.5157 94.2869ZM59.6434 94.6571C59.7559 94.4318 60.0578 94.2425 60.3014 94.2058C60.6099 94.1593 60.7565 94.3437 60.7329 94.6383C60.7245 94.7426 60.7117 94.8812 60.6684 94.9743C60.6174 95.0837 60.4855 95.107 60.4425 95.1911C60.6161 95.1565 60.8281 94.8719 60.8686 94.7004C60.939 94.4053 60.7834 94.0286 60.4823 93.944C60.1911 93.8622 59.843 94.0697 59.6557 94.2869C59.5883 94.365 59.511 94.5706 59.4227 94.7348C59.431 94.9042 59.4373 95.0741 59.4414 95.2447C59.525 95.0575 59.5501 94.8447 59.6434 94.6571ZM59.5297 100.391C59.5505 100.359 59.5712 100.329 59.5928 100.3C59.7296 100.117 59.8717 99.9957 60.0773 99.896C60.302 99.7872 60.4889 99.632 60.7524 99.6587C61.4451 99.7291 61.0838 100.446 60.8493 100.793C60.6901 101.029 60.5387 101.213 60.6886 101.506C60.775 101.676 61.0906 101.926 61.288 101.79C60.6789 101.664 60.7826 101.047 61.1165 100.663C61.2599 100.499 61.4512 100.288 61.4316 100.052C61.4236 99.9535 61.392 99.8319 61.3417 99.7193C61.5885 99.8073 61.8147 99.9512 62.0118 100.149C62.3006 100.438 62.5202 100.841 62.5918 101.241C62.641 101.515 62.7557 101.992 62.571 102.236C62.2121 102.709 61.5242 102.087 61.9313 101.678C61.8748 101.689 61.8108 101.789 61.7529 101.794C61.5567 102.076 61.8377 102.42 62.0955 102.541C62.2506 102.614 62.5213 102.601 62.6522 102.477C62.732 102.402 62.721 102.238 62.8029 102.196C62.8193 102.351 62.9799 102.577 63.0844 102.701C63.3174 102.978 63.5308 103.039 63.8949 103.034C64.1057 103.032 64.3093 103.012 64.3814 102.793C64.4127 102.699 64.4492 102.533 64.2748 102.308C64.3509 102.625 64.1718 102.845 63.7702 102.797C63.0499 102.709 62.8944 101.938 62.847 101.351C62.8143 100.943 62.7102 100.528 62.4454 100.204C62.2732 99.9938 62.1293 99.8641 61.9144 99.725C61.6839 99.5756 61.4654 99.3925 61.1842 99.3613C61.1755 99.3604 61.1675 99.3604 61.1592 99.3597C60.9929 99.2863 60.8361 99.2783 60.6424 99.2974C60.394 99.3219 60.1006 99.2683 59.8629 99.3781C59.6946 99.4557 59.6029 99.6082 59.5089 99.7594C59.5242 99.9685 59.533 100.179 59.5297 100.391Z" fill="#394E6D"/>
<path fill-rule="evenodd" clip-rule="evenodd" d="M68.4329 96.3004C67.7399 96.0276 66.7659 95.7768 66.0926 96.232C65.4834 96.6442 65.3308 97.3805 64.6349 97.6854C64.4117 97.7832 64.1768 97.8291 63.9351 97.8418C63.918 97.7385 63.9886 97.635 64.0426 97.534C64.2162 97.2107 64.2512 96.8488 64.2679 96.4842C64.285 96.1118 64.2086 95.6496 64.4172 95.3226C64.5709 95.0816 64.9912 94.9938 65.2474 95.126C65.5063 95.2596 65.4505 95.5038 65.3894 95.6956C65.6661 95.5488 65.4386 94.9445 65.1662 94.8998C64.9907 94.8709 64.696 94.8962 64.5329 94.9905C64.4334 95.0488 64.3476 95.128 64.2813 95.2225C64.0901 95.49 64.1505 95.7611 64.108 96.0703C63.9973 95.9816 63.9379 95.9091 63.7755 95.917C63.6232 95.9244 63.4958 96.0336 63.4249 96.1619C63.3274 96.3384 63.2957 96.8299 63.6172 96.7046C63.2531 96.6784 63.5703 95.7918 63.9275 96.1492C64.0053 96.227 64.0142 96.3271 64.0204 96.4304C64.0333 96.6823 64.0151 96.9348 63.9662 97.1822C63.9182 97.415 63.7611 97.6569 63.5802 97.8387C62.9021 97.7955 62.1936 97.5629 61.5658 97.5084C61.512 97.5039 61.4581 97.5003 61.4041 97.4977C61.4142 97.4834 61.4242 97.4692 61.434 97.4542C61.5635 97.2547 61.5498 97.0335 61.7265 96.8688C61.8844 96.7215 62.0079 96.5745 62.2523 96.6013C62.5247 96.631 62.5265 96.8421 62.5796 97.0519C62.6951 96.9758 62.599 96.7612 62.5519 96.6693C62.4383 96.4486 62.3447 96.4321 62.0742 96.4591C61.9034 96.4762 61.7625 96.5439 61.6493 96.6755C61.5615 96.7778 61.5408 96.8985 61.4563 96.9963C61.373 96.8228 61.2859 96.667 61.0475 96.7138C60.9579 96.7314 60.8406 96.7811 60.8115 96.8722C60.7848 96.9562 60.834 97.0634 60.9229 97.0672C60.8177 96.9682 60.8719 96.8089 61.018 96.795C61.171 96.7804 61.2506 96.9473 61.2627 97.0788C61.2824 97.2916 61.1578 97.4457 60.9604 97.5012C60.4259 97.5374 59.896 97.6998 59.5565 98.1027C59.4965 98.1738 59.4455 98.2429 59.4018 98.3116C59.4007 98.2058 59.4018 98.0997 59.4069 97.9926C59.417 97.7752 59.4243 97.5575 59.4302 97.3395C59.4368 97.0898 59.4403 96.8399 59.4426 96.5902C59.4458 96.2798 59.4471 95.9697 59.4471 95.661C59.4457 95.3523 59.4375 95.0437 59.4226 94.7354C59.4049 94.3885 59.3818 94.0419 59.3531 93.6958C59.3312 93.4281 59.3076 93.1613 59.2843 92.8945L59.2719 92.7554C59.2289 92.262 59.1878 91.769 59.1619 91.273C59.1487 91.3977 59.1292 91.5051 59.1048 91.5729C59.0977 91.5453 59.0906 91.519 59.0835 91.4922C59.0753 91.5227 59.0672 91.553 59.059 91.5847C59.0321 91.5095 59.0108 91.3863 58.9978 91.2441C58.9725 91.2495 58.9479 91.2579 58.9246 91.2693L58.8843 91.3499C58.8843 91.8191 58.8822 92.2875 58.8793 92.7556L58.8786 92.8541C58.8767 93.1451 58.8747 93.4361 58.8719 93.727C58.8663 94.2982 58.8599 94.8695 58.8525 95.4407L58.8377 96.629C58.8347 96.8768 58.8315 97.1244 58.8287 97.3725C58.8246 97.7164 58.8209 98.0612 58.8175 98.4066C58.7795 98.351 58.7388 98.2975 58.6954 98.2461C58.3956 97.89 57.9469 97.7219 57.4778 97.6624C57.3104 97.6027 57.1408 97.5492 56.9694 97.5021C56.7704 97.4473 56.6445 97.2927 56.6645 97.0788C56.6765 96.9473 56.7563 96.7804 56.9091 96.795C57.0554 96.8089 57.1094 96.9682 57.0042 97.0672C57.0932 97.0634 57.1423 96.9562 57.1156 96.8722C57.0867 96.7813 56.9694 96.7314 56.88 96.7138C56.6414 96.667 56.5543 96.8228 56.4711 96.9963C56.3865 96.8985 56.3657 96.7778 56.278 96.6755C56.1648 96.5439 56.0238 96.4762 55.8531 96.4591C55.5828 96.4321 55.4891 96.4484 55.3756 96.6693C55.3283 96.7612 55.2322 96.9758 55.3477 97.0519C55.4012 96.8421 55.4028 96.6308 55.6752 96.6013C55.9195 96.5747 56.043 96.7217 56.2008 96.8688C56.3776 97.0335 56.3638 97.2547 56.4933 97.4542C56.5434 97.5313 56.5992 97.5983 56.6605 97.6542C55.9892 97.7173 55.2283 97.977 54.5114 97.9885L54.5127 97.9832C54.2687 97.8021 54.0233 97.4843 53.9613 97.1824C53.9123 96.935 53.8942 96.6825 53.9072 96.4306C53.9133 96.3271 53.9223 96.227 53.9998 96.1494C54.3572 95.7921 54.6744 96.6786 54.3103 96.7047C54.6319 96.8301 54.6001 96.3385 54.5027 96.162C54.4318 96.0338 54.3044 95.9244 54.1519 95.9171C53.9893 95.9093 53.93 95.9818 53.8195 96.0705C53.7773 95.7613 53.8374 95.4902 53.6462 95.2227C53.58 95.1281 53.4941 95.0489 53.3946 94.9906C53.2314 94.8966 52.937 94.8711 52.7614 94.9C52.489 94.9447 52.2615 95.549 52.538 95.6958C52.4769 95.5039 52.4208 95.2597 52.6799 95.1262C52.9361 94.994 53.3564 95.0818 53.5101 95.3228C53.7187 95.6498 53.6421 96.112 53.6593 96.4844C53.676 96.849 53.7111 97.2109 53.8845 97.5342C53.9552 97.6662 54.054 97.8022 53.9494 97.9363C53.8353 97.9113 53.724 97.8754 53.6169 97.8289C52.9212 97.5242 52.7685 96.7877 52.1592 96.3756C51.4861 95.9203 50.5123 96.1711 49.819 96.444C49.5822 96.5093 49.6037 96.5304 49.8844 96.5305H49.9186C50.0993 96.4109 50.3301 96.3774 50.5247 96.3325C50.8607 96.2548 51.2988 96.3204 51.6177 96.4039C52.1114 96.5334 52.3356 97.0364 52.6228 97.4054C53.56 98.6098 55.0907 98.1914 56.435 98.1339C56.3162 98.1524 56.2023 98.1827 56.0976 98.2315C55.873 98.3358 55.6645 98.3893 55.4237 98.4352C55.195 98.4789 54.9189 98.5008 54.7184 98.6128C54.4953 98.7377 54.2886 98.9001 54.0709 99.0299C53.8699 99.1498 53.6174 99.2716 53.4353 99.4104C53.4406 99.4004 53.4448 99.3899 53.4481 99.379L53.4191 99.4225C53.3902 99.4451 53.3635 99.4704 53.3393 99.498L53.3402 99.4943C53.3393 99.4964 53.3372 99.4994 53.3361 99.5017C53.3151 99.5252 53.2958 99.5502 53.2784 99.5764C53.1728 99.6556 53.0443 99.7213 52.9677 99.7438C52.7483 99.8081 52.4949 99.8136 52.3145 99.6633C52.1848 99.5552 52.0268 99.3363 52.1435 99.169C52.266 98.9939 52.3786 99.2321 52.2909 99.3644C52.4798 99.2759 52.4332 98.9126 52.1858 98.9662C51.9607 99.0148 52.1025 99.3851 51.8347 99.3181C51.5513 99.247 51.2938 99.0103 50.975 99.1355C50.8334 99.1913 50.7525 99.3438 50.8069 99.4959C50.8325 99.5675 50.9099 99.6088 50.984 99.6405C51.0372 99.6633 51.0948 99.6692 51.1527 99.6741C51.1701 99.5609 50.6971 99.4335 51.0127 99.3014C51.2458 99.2036 51.5715 99.3364 51.748 99.4928C51.9481 99.67 52.0339 99.8948 52.3241 99.9634C52.4968 100.004 52.6966 99.9999 52.875 99.973C52.7938 100.048 52.7156 100.125 52.6447 100.221C52.486 100.434 52.3984 100.664 52.2059 100.855C52.0065 101.052 51.767 101.138 51.4969 101.212C51.2023 101.293 50.626 101.429 50.5476 101.015C50.5158 100.848 50.6555 100.609 50.803 100.82C50.8145 100.656 50.5712 100.651 50.4897 100.734C50.353 100.875 50.3861 101.02 50.4767 101.173C50.5583 101.312 50.6441 101.41 50.8024 101.441C50.9002 101.46 51.1406 101.427 51.2231 101.5C51.21 101.509 51.1984 101.521 51.1886 101.534C51.1358 101.606 51.055 101.776 51.0306 101.87C50.9677 102.113 51.1314 102.405 51.3172 102.554C51.4722 102.678 51.9356 102.648 52.0009 102.438C52.0622 102.242 51.8375 102.04 51.6547 102.132C51.6598 102.142 51.6638 102.152 51.6678 102.165C51.8136 102.148 51.9516 102.207 51.855 102.357C51.769 102.49 51.6245 102.468 51.501 102.396C51.349 102.308 51.2421 102.237 51.2405 102.055C51.2382 101.817 51.2833 101.68 51.4095 101.519C51.6531 101.438 52.0819 101.233 52.213 101.134C52.4528 100.954 52.6701 100.725 52.8508 100.491C52.8693 100.467 52.8858 100.442 52.9014 100.417C52.867 100.675 52.9976 100.935 53.2114 101.083C53.4098 101.22 53.869 101.203 54.0622 101.06C54.1654 100.983 54.2388 100.835 54.2296 100.704C54.2237 100.62 54.1773 100.424 54.0665 100.459C54.322 100.724 54.0348 101.011 53.7247 101.005C53.4868 101.001 53.2826 100.854 53.1886 100.641C53.1246 100.495 53.0754 100.359 53.1335 100.207C53.2083 100.011 53.3297 99.8558 53.4832 99.7126C53.5835 99.6191 53.6506 99.4793 53.7663 99.4041C53.9074 99.3124 54.0785 99.2957 54.2164 99.1943C54.2946 99.1368 54.3781 99.0805 54.4622 99.0287C54.6148 98.9345 54.746 98.9065 54.9258 98.8654C55.1131 98.8223 55.2643 98.7173 55.4492 98.681C55.7379 98.6246 56.0407 98.6196 56.3213 98.5227C56.4047 98.4938 56.4812 98.448 56.5694 98.435C57.0698 98.362 57.6141 98.4094 58.1205 98.4096L58.1543 98.387C58.4145 98.5004 58.643 98.658 58.8139 98.8732C58.8111 99.2057 58.8088 99.5382 58.8072 99.8708C58.8065 99.9947 58.8065 100.119 58.8061 100.244L59.4604 100.418C59.4233 100.811 59.4572 101.276 59.4938 101.701C59.5025 101.297 59.5132 100.893 59.5274 100.489C59.5288 100.457 59.5288 100.424 59.5295 100.392C59.5321 100.181 59.5251 99.9707 59.5087 99.7607C59.484 99.4234 59.4453 99.0887 59.4217 98.751C59.5455 98.5888 59.7017 98.4586 59.8791 98.3544C59.8755 98.364 59.8718 98.3732 59.8697 98.3836L59.9086 98.4094C60.415 98.4092 60.9591 98.3618 61.4597 98.4349C61.5475 98.4477 61.6243 98.4936 61.7076 98.5225C61.988 98.6194 62.291 98.6244 62.5798 98.6808C62.7644 98.7172 62.9158 98.8221 63.1031 98.8652C63.2829 98.9063 63.4137 98.9345 63.5664 99.0285C63.6504 99.0803 63.7339 99.1364 63.8121 99.1941C63.9499 99.2955 64.121 99.3122 64.2623 99.404C64.3778 99.4791 64.4451 99.6189 64.5452 99.7124C64.6989 99.8556 64.8201 100.01 64.895 100.207C64.9533 100.359 64.9041 100.495 64.8401 100.64C64.7461 100.854 64.542 101 64.3038 101.005C63.9939 101.01 63.7066 100.724 63.9623 100.459C63.8512 100.424 63.8047 100.62 63.7988 100.704C63.7897 100.835 63.8633 100.983 63.9664 101.06C64.1597 101.203 64.6189 101.22 64.8174 101.083C65.0312 100.935 65.1618 100.675 65.1269 100.417C65.1426 100.442 65.1593 100.467 65.1776 100.491C65.3585 100.725 65.5756 100.954 65.8155 101.134C65.9467 101.233 66.3753 101.438 66.6193 101.519C66.7453 101.679 66.7904 101.817 66.7879 102.054C66.7861 102.237 66.6797 102.308 66.5276 102.396C66.4041 102.467 66.2596 102.49 66.1736 102.357C66.0771 102.207 66.2148 102.148 66.3607 102.165C66.3648 102.152 66.3687 102.142 66.3739 102.131C66.191 102.04 65.9664 102.242 66.0279 102.438C66.0928 102.648 66.5566 102.678 66.7113 102.554C66.8974 102.405 67.0612 102.113 66.998 101.87C66.9736 101.776 66.8928 101.606 66.84 101.534C66.8302 101.521 66.8187 101.509 66.8057 101.499C66.888 101.427 67.1284 101.46 67.2263 101.441C67.3846 101.41 67.4703 101.312 67.5519 101.173C67.6425 101.019 67.6754 100.874 67.5391 100.734C67.4571 100.651 67.2139 100.655 67.2256 100.82C67.3731 100.608 67.5126 100.847 67.4811 101.015C67.4028 101.428 66.8261 101.293 66.5315 101.212C66.2614 101.138 66.022 101.052 65.8225 100.854C65.6302 100.664 65.5424 100.434 65.3837 100.22C65.313 100.125 65.2345 100.048 65.1532 99.9728C65.3317 99.9995 65.5316 100.004 65.7045 99.9632C65.9943 99.8946 66.0803 99.6699 66.2802 99.4926C66.4569 99.3364 66.7824 99.2034 67.0157 99.3012C67.3312 99.4335 66.8581 99.5609 66.8755 99.674C66.9338 99.669 66.991 99.6631 67.0442 99.6403C67.1184 99.6086 67.1959 99.5673 67.2215 99.4957C67.2757 99.3436 67.1952 99.1911 67.0532 99.1354C66.7346 99.0102 66.4771 99.2467 66.1935 99.3179C65.9259 99.3849 66.0675 99.0148 65.8426 98.966C65.595 98.9126 65.5486 99.2757 65.7374 99.3642C65.6496 99.2319 65.7624 98.9938 65.8845 99.1688C66.0014 99.3361 65.8436 99.555 65.7137 99.6631C65.5332 99.8134 65.2799 99.8079 65.0605 99.7436C64.9837 99.7212 64.8554 99.6554 64.7499 99.5764C64.7325 99.55 64.7132 99.525 64.6923 99.5014C64.6909 99.4991 64.6887 99.4962 64.6882 99.4941L64.6889 99.4978C64.6665 99.4721 64.6419 99.4485 64.6153 99.4271L64.6095 99.4225L64.5803 99.379C64.5832 99.3893 64.588 99.3999 64.5931 99.4105C64.411 99.2718 64.1583 99.15 63.9573 99.0301C63.74 98.9003 63.5331 98.7378 63.31 98.613C63.1093 98.5009 62.8334 98.479 62.6047 98.4354C62.3635 98.3895 62.1552 98.3362 61.9306 98.2316C61.526 98.0434 60.9846 98.1257 60.5403 98.1253C60.5072 98.1253 60.4674 98.1257 60.4241 98.1273C60.7173 98.0439 61.0329 98.0022 61.3424 97.9885C62.0019 97.959 62.7349 98.0863 63.4367 98.1047C63.5251 98.1344 63.6351 98.1319 63.7382 98.1048C64.4584 98.0852 65.1282 97.9054 65.6288 97.2624C65.9161 96.8933 66.1404 96.3904 66.6339 96.2609C66.9528 96.1772 67.3909 96.1118 67.7267 96.1895C67.9215 96.2344 68.1523 96.2678 68.333 96.3875H68.367C68.6485 96.3868 68.67 96.3658 68.4329 96.3004Z" fill="#394E6D"/>
<path fill-rule="evenodd" clip-rule="evenodd" d="M59.4603 100.417L58.8061 100.243C58.8064 100.118 58.8064 99.9937 58.8071 99.8698C58.6824 99.6881 58.5917 99.4755 58.3821 99.3786C58.1446 99.269 57.8511 99.3225 57.6027 99.2979C57.4088 99.2788 57.2521 99.2868 57.0859 99.3602C57.0774 99.3609 57.0696 99.3608 57.0608 99.3618C56.7795 99.393 56.561 99.5761 56.3303 99.7255C56.1157 99.8646 55.9715 99.9943 55.7995 100.205C55.5347 100.528 55.4306 100.943 55.3977 101.351C55.3503 101.938 55.1946 102.71 54.4746 102.797C54.073 102.846 53.8939 102.626 53.9701 102.309C53.7959 102.533 53.8324 102.699 53.8635 102.794C53.9354 103.013 54.1393 103.033 54.3498 103.035C54.7139 103.039 54.9275 102.979 55.1603 102.702C55.2648 102.578 55.4255 102.352 55.4418 102.196C55.5236 102.238 55.5125 102.402 55.5925 102.478C55.7233 102.602 55.9939 102.614 56.1491 102.541C56.4071 102.421 56.6879 102.077 56.4918 101.794C56.4336 101.79 56.3696 101.689 56.3133 101.679C56.7205 102.087 56.0327 102.71 55.6737 102.236C55.4889 101.992 55.6035 101.515 55.6527 101.242C55.7244 100.841 55.944 100.439 56.2328 100.149C56.4066 99.9731 56.6148 99.8345 56.8444 99.7423C56.7835 99.8648 56.7456 100.003 56.7367 100.113C56.7172 100.349 56.9086 100.56 57.052 100.724C57.3857 101.108 57.4893 101.725 56.8805 101.851C57.0777 101.987 57.3931 101.737 57.4797 101.567C57.6295 101.274 57.4781 101.09 57.319 100.854C57.0843 100.507 56.7229 99.79 57.4157 99.7196C57.6792 99.6929 57.8665 99.8481 58.0908 99.9569C58.2962 100.057 58.4384 100.178 58.5752 100.361C58.614 100.413 58.6515 100.471 58.6873 100.532C58.7893 100.974 58.7897 101.408 58.7897 101.907C58.7895 103.13 58.8185 101.982 58.7417 103.198C58.6359 104.876 58.6067 104.25 58.5134 105.928C58.4965 106.214 58.4865 106.5 58.4836 106.786C58.4411 106.923 58.3955 107.058 58.3468 107.191C58.1424 107.76 58.0025 108.427 57.5981 108.798C57.314 109.058 56.9551 109.049 56.6781 109.329C56.5908 109.418 56.5206 109.552 56.4298 109.632C56.2756 109.768 56.0554 109.865 55.8887 109.955C55.5257 110.152 54.429 110.316 54.6834 111.153C54.7521 111.066 54.7509 110.934 54.8045 110.838C54.8989 110.668 55.051 110.619 55.1913 110.6C55.3371 110.581 55.4916 110.583 55.6317 110.537C55.7521 110.497 55.8537 110.393 55.9727 110.35C56.559 110.136 56.3477 110.885 56.276 111.302C56.2042 111.317 56.1189 111.615 56.1037 111.715C56.0553 111.755 55.9966 111.81 55.9559 111.854C56.2656 111.802 56.4125 111.449 56.6112 111.139C56.7383 110.94 56.772 110.616 56.9361 110.449C57.1464 110.235 57.6205 110.17 57.8834 110.215C58.0359 110.586 58.1065 110.799 57.8708 111.158C58.067 111.094 58.1123 111.006 58.2038 110.746C58.2866 110.51 58.3692 110.299 58.5626 110.206C58.8157 110.083 58.9674 110.181 59.1221 110.443C59.2075 110.587 59.5146 110.967 59.4634 111.157C59.5626 111.23 59.6215 111.367 59.732 111.423C59.9681 111.543 60.1122 111.49 60.3351 111.425C60.112 111.48 59.8939 111.363 59.7973 111.048C59.7101 110.765 59.6939 110.391 59.8979 110.212C60.0964 110.038 60.5003 109.99 60.6627 110.305C60.7303 110.436 60.7048 110.645 60.632 110.763C60.7221 110.804 60.741 111.271 60.8338 111.232C60.8599 111 61.1268 110.365 61.2933 110.35C61.4946 110.333 61.6546 110.617 61.749 110.844C61.8933 111.191 61.8386 111.748 62.1975 111.807C62.0484 111.761 62.0585 111.337 62.0532 111.183C62.0287 110.481 62.2817 110.424 62.7462 110.42C63.0457 110.417 63.1809 110.345 63.3585 110.659C63.391 110.716 63.3989 110.777 63.447 110.844C63.5854 111.035 63.8304 111.084 64.0147 111.116C63.8478 111.079 63.6464 110.526 63.5446 110.345C63.3766 110.044 62.7851 110.076 62.4743 109.594C62.2989 109.323 62.271 109.402 61.9881 109.381C61.8338 109.37 61.7355 109.368 61.675 109.37C61.6441 109.342 61.563 109.295 61.3902 109.22C61.1633 109.121 61.1355 109.144 60.9655 108.942C60.8811 108.842 60.8209 108.749 60.7489 108.635C60.6684 108.506 60.5969 108.362 60.5116 108.239C60.4318 108.125 60.2915 108.039 60.2269 107.915C60.1148 107.701 60.0612 107.273 59.9903 107.01C59.9151 106.73 59.85 106.461 59.8172 106.171C59.8023 106.039 59.7733 105.918 59.7392 105.799C59.7206 105.277 59.7575 106.315 59.7281 105.799C59.6928 105.186 59.6129 105.315 59.6391 104.716C59.6817 103.735 59.5876 105.225 59.5766 104.241C59.5679 103.488 59.5803 102.739 59.5179 101.993C59.5103 101.899 59.5016 101.8 59.4932 101.7C59.4573 101.275 59.4232 100.81 59.4603 100.417Z" fill="#394E6D"/>
<path fill-rule="evenodd" clip-rule="evenodd" d="M63.355 116.535C63.3715 116.539 63.3886 116.541 63.4056 116.539C63.3887 116.539 63.3718 116.537 63.355 116.535Z" fill="#394E6D"/>
</svg>
